<?xml version="1.0" encoding="UTF-8" standalone="no"?>
<!-- Created with Inkscape (http://www.inkscape.org/) -->

<svg
   xmlns:dc="http://purl.org/dc/elements/1.1/"
   xmlns:cc="http://creativecommons.org/ns#"
   xmlns:rdf="http://www.w3.org/1999/02/22-rdf-syntax-ns#"
   xmlns:svg="http://www.w3.org/2000/svg"
   xmlns="http://www.w3.org/2000/svg"
   xmlns:sodipodi="http://sodipodi.sourceforge.net/DTD/sodipodi-0.dtd"
   xmlns:inkscape="http://www.inkscape.org/namespaces/inkscape"
   sodipodi:docname="New document 1"
   width="744.09448819"
   height="1052.3622047"
   id="svg2"
   version="1.1"
   inkscape:version="0.48.4 r9939">
  <sodipodi:namedview
     id="base"
     pagecolor="#ffffff"
     bordercolor="#666666"
     borderopacity="1.0"
     inkscape:pageopacity="0.0"
     inkscape:pageshadow="2"
     inkscape:zoom="2.2691807"
     inkscape:cx="60.881491"
     inkscape:cy="36.726438"
     inkscape:document-units="px"
     inkscape:current-layer="svg2"
     showgrid="true"
     inkscape:window-width="1366"
     inkscape:window-height="744"
     inkscape:window-x="0"
     inkscape:window-y="24"
     inkscape:window-maximized="1"
     showguides="true"
     inkscape:snap-global="true"
     inkscape:snap-bbox="true"
     inkscape:snap-bbox-edge-midpoints="false"
     inkscape:object-paths="true"
     inkscape:snap-intersection-paths="true"
     inkscape:snap-bbox-midpoints="true"
     inkscape:object-nodes="true"
     inkscape:snap-grids="true"
     inkscape:bbox-nodes="false">
    <inkscape:grid
       type="xygrid"
       id="grid3493"
       empspacing="5"
       visible="true"
       enabled="true"
       snapvisiblegridlinesonly="true" />
  </sodipodi:namedview>
  <defs
     id="defs4" />
  <metadata
     id="metadata7">
    <rdf:RDF>
      <cc:Work
         rdf:about="">
        <dc:format>image/svg+xml</dc:format>
        <dc:type
           rdf:resource="http://purl.org/dc/dcmitype/StillImage" />
        <dc:title></dc:title>
      </cc:Work>
    </rdf:RDF>
  </metadata>
  <g
     inkscape:label="Layer 1"
     inkscape:groupmode="layer"
     id="layer1" />
  <path
     style="fill:#800080;fill-opacity:0.52511417;stroke:none"
     d="m 80.5,932.21875 c -1.374448,10e-5 -2.750552,0.13795 -4.125,0.40625 -1.374448,0.2683 -2.750552,0.6614 -4.125,1.1875 -1.374448,0.5261 -2.750552,1.1738 -4.125,1.9375 -1.374448,0.7637 -4.125,2.625 -4.125,2.625 l 0,114 49.46875,0 33,0 70.53125,0 0,-69.46875 -61.71875,0 c -8.26509,0 -10.42928,-1.86665 -16.03125,-6.90625 -8.90867,-7.80373 -23.6132,-20.65716 -29.90625,-26.875 -1.37444,-1.348 -2.75055,-2.6677 -4.125,-3.9375 -1.37445,-1.2698 -2.71931,-2.51355 -4.09375,-3.65625 -1.374453,-1.1427 -2.750552,-2.18445 -4.125,-3.15625 -1.374448,-0.9718 -2.750552,-1.8615 -4.125,-2.625 -1.374448,-0.7635 -2.750552,-1.4117 -4.125,-1.9375 -1.374448,-0.5259 -2.750552,-0.9195 -4.125,-1.1875 -1.374448,-0.268 -2.750552,-0.40635 -4.125,-0.40625 z"
     id="path4538"
     inkscape:connector-curvature="0"
     sodipodi:nodetypes="ssssccccccsccsssscss" />
  <path
     inkscape:connector-curvature="0"
     style="fill:#800080;fill-opacity:0.52511417;stroke:none"
     d="m 0,1128.3622 c 1.374448,-10e-5 2.748896,-0.1355 4.123344,-0.4035 1.374448,-0.268 2.748896,-0.6692 4.123344,-1.195 1.374448,-0.5259 2.748896,-1.1772 4.123344,-1.9406 1.374448,-0.7635 2.748896,-1.6399 4.123344,-2.6117 1.374448,-0.9718 2.748896,-2.0395 4.123344,-3.1822 1.374448,-1.1428 2.748896,-2.3609 4.123344,-3.6307 1.374448,-1.2697 2.748896,-2.5914 4.123344,-3.9394 1.374448,-1.348 2.748896,-2.7225 4.123345,-4.0969 1.374448,-1.3745 2.748896,-2.7489 4.123344,-4.0969 1.374448,-1.3481 2.748896,-2.6696 4.123344,-3.9395 1.374448,-1.2699 2.748896,-2.4877 4.123344,-3.6306 1.374448,-1.1429 2.748896,-2.2103 4.123344,-3.1823 1.374448,-0.9719 2.748896,-1.8479 4.123344,-2.6116 1.374448,-0.7637 2.748896,-1.4145 4.123344,-1.9406 1.374448,-0.5261 2.748896,-0.9267 4.123344,-1.195 1.374448,-0.2683 2.748896,-0.4034 4.123344,-0.4035 1.374448,-10e-5 2.748896,0.1355 4.123344,0.4035 1.374448,0.268 2.748896,0.6692 4.123344,1.1951 1.374448,0.5258 2.748896,1.1771 4.123344,1.9406 1.374448,0.7635 2.748896,1.6398 4.123344,2.6116 1.374448,0.9718 2.748896,2.0396 4.123349,3.1823 1.37444,1.1427 2.74889,2.3608 4.12334,3.6306 1.37445,1.2698 2.7489,2.5915 4.12334,3.9395 1.37445,1.348 2.7489,2.7224 4.12335,4.0969 1.37445,1.3744 2.7489,2.7488 4.12335,4.0969 1.37445,1.3481 2.7489,2.6696 4.12335,3.9394 1.37444,1.2699 2.74889,2.4878 4.12334,3.6307 1.37445,1.1428 2.7489,2.2102 4.12334,3.1822 1.37445,0.972 2.7489,1.8479 4.12335,2.6116 1.37445,0.7637 2.74889,1.4145 4.12334,1.9406 1.37445,0.5261 2.7489,0.9267 4.12335,1.195 1.37444,0.2683 2.74889,0.4034 4.12334,0.4035"
     title="cos(x)"
     id="path4551"
     sodipodi:nodetypes="csccsccsccsscssssscssssscsccssssc" />
  <path
     style="fill:#800080;fill-opacity:0.52511417;stroke:none"
     d="m -59,1051.362 4.696072,-4.6961 L -27,1019.3617 l 0,114.0001 -32,3e-4 z"
     id="rect4553"
     inkscape:connector-curvature="0"
     sodipodi:nodetypes="cccccc" />
  <path
     style="fill:#800080;fill-opacity:0.52511417;stroke:none"
     d="m -91,1051.362 25.559886,0 6.440114,0 0,82 -32,4e-4 z"
     id="rect4553-3"
     inkscape:connector-curvature="0"
     sodipodi:nodetypes="cccccc" />
  <path
     style="fill:#00ffff;fill-opacity:0.52511417;stroke:none"
     d="m 41.5,1033.3622 13,0 0,13 -13,0 z"
     id="rect4577"
     inkscape:connector-curvature="0"
     sodipodi:nodetypes="ccccc" />
  <path
     inkscape:connector-curvature="0"
     id="path4586"
     d="m 41.5,1010.8621 13,0 0,13.0001 -13,0 z"
     style="fill:#00ffff;fill-opacity:0.52511417;stroke:none"
     sodipodi:nodetypes="ccccc" />
  <path
     inkscape:connector-curvature="0"
     id="path4588"
     d="m 41.5,988.36219 13,0 0,13.00001 -13,0 z"
     style="fill:#00ffff;fill-opacity:0.52511417;stroke:none"
     sodipodi:nodetypes="ccccc" />
  <path
     style="fill:#00ffff;fill-opacity:0.52511417;stroke:none"
     d="m 41.5,965.86212 13,0 0,13.00007 -13,0 z"
     id="path4590"
     inkscape:connector-curvature="0"
     sodipodi:nodetypes="ccccc" />
  <path
     style="fill:#800080;fill-opacity:0.52511417;stroke:none"
     d="m 64,938.36218 c 0,0 -23.07194,23.04069 -27.3125,27.28125 -4.24056,4.24056 -5.422049,4.70593 -13.6875,4.70593 -8.265451,0 -23,0.0128 -23,0.0128 l 0,82.00004 32,0 32,0 z"
     id="path4598"
     inkscape:connector-curvature="0"
     sodipodi:nodetypes="czzccccc" />
</svg>
