  0
SECTION
  2
HEADER
  9
$ACADVER
  1
AC1014
  9
$HANDSEED
  5
FFFF
  9
$MEASUREMENT
 70
     1
  0
ENDSEC
  0
SECTION
  2
TABLES
  0
TABLE
  2
VPORT
  5
8
330
0
100
AcDbSymbolTable
 70
     4
  0
VPORT
  5
2E
330
8
100
AcDbSymbolTableRecord
100
AcDbViewportTableRecord
  2
*ACTIVE
 70
     0
 10
0.0
 20
0.0
 11
1.0
 21
1.0
 12
210.0
 22
148.5
 13
0.0
 23
0.0
 14
10.0
 24
10.0
 15
10.0
 25
10.0
 16
0.0
 26
0.0
 36
1.0
 17
0.0
 27
0.0
 37
0.0
 40
341.0
 41
1.24
 42
50.0
 43
0.0
 44
0.0
 50
0.0
 51
0.0
 71
     0
 72
   100
 73
     1
 74
     3
 75
     0
 76
     0
 77
     0
 78
     0
  0
ENDTAB
  0
TABLE
  2
LTYPE
  5
5
330
0
100
AcDbSymbolTable
 70
     1
  0
LTYPE
  5
14
330
5
100
AcDbSymbolTableRecord
100
AcDbLinetypeTableRecord
  2
BYBLOCK
 70
     0
  3

 72
    65
 73
     0
 40
0.0
  0
LTYPE
  5
15
330
5
100
AcDbSymbolTableRecord
100
AcDbLinetypeTableRecord
  2
BYLAYER
 70
     0
  3

 72
    65
 73
     0
 40
0.0
  0
LTYPE
  5
16
330
5
100
AcDbSymbolTableRecord
100
AcDbLinetypeTableRecord
  2
CONTINUOUS
 70
     0
  3
Solid line
 72
    65
 73
     0
 40
0.0
  0
ENDTAB
  0
TABLE
  2
LAYER
  5
2
100
AcDbSymbolTable
 70
2
  0
LAYER
  5
50
100
AcDbSymbolTableRecord
100
AcDbLayerTableRecord
  2
0
 70
0
  6
CONTINUOUS
  0
LAYER
  5
51
100
AcDbSymbolTableRecord
100
AcDbLayerTableRecord
  2
Layer_1
 70
0
  6
CONTINUOUS
  0
ENDTAB
  0
TABLE
  2
STYLE
  5
3
330
0
100
AcDbSymbolTable
 70
     1
  0
STYLE
  5
11
330
3
100
AcDbSymbolTableRecord
100
AcDbTextStyleTableRecord
  2
STANDARD
 70
     0
 40
0.0
 41
1.0
 50
0.0
 71
     0
 42
2.5
  3
txt
  4

  0
ENDTAB
  0
TABLE
  2
VIEW
  5
6
330
0
100
AcDbSymbolTable
 70
     0
  0
ENDTAB
  0
TABLE
  2
UCS
  5
7
330
0
100
AcDbSymbolTable
 70
     0
  0
ENDTAB
  0
TABLE
  2
APPID
  5
9
330
0
100
AcDbSymbolTable
 70
     2
  0
APPID
  5
12
330
9
100
AcDbSymbolTableRecord
100
AcDbRegAppTableRecord
  2
ACAD
 70
     0
  0
ENDTAB
  0
TABLE
  2
DIMSTYLE
  5
A
330
0
100
AcDbSymbolTable
 70
     1
  0
DIMSTYLE
105
27
330
A
100
AcDbSymbolTableRecord
100
AcDbDimStyleTableRecord
  2
ISO-25
 70
     0
  3

  4

  5

  6

  7

 40
1.0
 41
2.5
 42
0.625
 43
3.75
 44
1.25
 45
0.0
 46
0.0
 47
0.0
 48
0.0
140
2.5
141
2.5
142
0.0
143
0.03937007874016
144
1.0
145
0.0
146
1.0
147
0.625
 71
     0
 72
     0
 73
     0
 74
     0
 75
     0
 76
     0
 77
     1
 78
     8
170
     0
171
     3
172
     1
173
     0
174
     0
175
     0
176
     0
177
     0
178
     0
270
     2
271
     2
272
     2
273
     2
274
     3
340
11
275
     0
280
     0
281
     0
282
     0
283
     0
284
     8
285
     0
286
     0
287
     3
288
     0
  0
ENDTAB
  0
TABLE
  2
BLOCK_RECORD
  5
1
330
0
100
AcDbSymbolTable
 70
     1
  0
BLOCK_RECORD
  5
1F
330
1
100
AcDbSymbolTableRecord
100
AcDbBlockTableRecord
  2
*MODEL_SPACE
  0
BLOCK_RECORD
  5
1B
330
1
100
AcDbSymbolTableRecord
100
AcDbBlockTableRecord
  2
*PAPER_SPACE
  0
ENDTAB
  0
ENDSEC
  0
SECTION
  2
BLOCKS
  0
BLOCK
  5
20
330
1F
100
AcDbEntity
  8
0
100
AcDbBlockBegin
  2
*MODEL_SPACE
 70
     0
 10
0.0
 20
0.0
 30
0.0
  3
*MODEL_SPACE
  1

  0
ENDBLK
  5
21
330
1F
100
AcDbEntity
  8
0
100
AcDbBlockEnd
  0
BLOCK
  5
1C
330
1B
100
AcDbEntity
 67
     1
  8
0
100
AcDbBlockBegin
  2
*PAPER_SPACE
  1

  0
ENDBLK
  5
1D
330
1B
100
AcDbEntity
 67
     1
  8
0
100
AcDbBlockEnd
  0
ENDSEC
  0
SECTION
  2
ENTITIES
  0
LWPOLYLINE
  5
100
100
AcDbEntity
  8
Layer_1
 62
7
100
AcDbPolyline
 90
59
 70
0
 10
22.500000
 20
44.987205
 30
0.0
 10
17.944397
 20
44.539339
 30
0.0
 10
13.711426
 20
43.252502
 30
0.0
 10
9.889343
 20
41.226460
 30
0.0
 10
6.566406
 20
38.560980
 30
0.0
 10
3.830872
 20
35.355828
 30
0.0
 10
1.770996
 20
31.710770
 30
0.0
 10
0.475037
 20
27.725574
 30
0.0
 10
0.031250
 20
23.500005
 30
0.0
 10
0.000000
 20
22.487205
 30
0.0
 10
22.500000
 20
0.018405
 30
0.0
 10
32.500000
 20
-0.012595
 30
0.0
 10
32.500000
 20
3.987405
 30
0.0
 10
24.187500
 20
3.987405
 30
0.0
 10
4.062500
 20
24.081205
 30
0.0
 10
4.439612
 20
27.368314
 30
0.0
 10
5.555231
 20
30.485417
 30
0.0
 10
7.315472
 20
33.349827
 30
0.0
 10
9.626449
 20
35.878855
 30
0.0
 10
12.394277
 20
37.989814
 30
0.0
 10
15.525068
 20
39.600017
 30
0.0
 10
18.924938
 20
40.626777
 30
0.0
 10
22.500000
 20
40.987405
 30
0.0
 10
26.228395
 20
40.611552
 30
0.0
 10
29.701035
 20
39.533588
 30
0.0
 10
32.843526
 20
37.827904
 30
0.0
 10
35.581476
 20
35.568892
 30
0.0
 10
37.840491
 20
32.830945
 30
0.0
 10
39.546178
 20
29.688453
 30
0.0
 10
40.624146
 20
26.215809
 30
0.0
 10
41.000000
 20
22.487405
 30
0.0
 10
41.457120
 20
17.952872
 30
0.0
 10
42.768162
 20
13.729392
 30
0.0
 10
44.842647
 20
9.907444
 30
0.0
 10
47.590097
 20
6.577505
 30
0.0
 10
50.920036
 20
3.830053
 30
0.0
 10
54.741985
 20
1.755567
 30
0.0
 10
58.965465
 20
0.444525
 30
0.0
 10
63.500000
 20
-0.012595
 30
0.0
 10
73.500000
 20
-0.012595
 30
0.0
 10
73.500000
 20
3.987405
 30
0.0
 10
63.500000
 20
3.987405
 30
0.0
 10
59.771605
 20
4.363258
 30
0.0
 10
56.298965
 20
5.441222
 30
0.0
 10
53.156474
 20
7.146906
 30
0.0
 10
50.418524
 20
9.405917
 30
0.0
 10
48.159509
 20
12.143865
 30
0.0
 10
46.453822
 20
15.286356
 30
0.0
 10
45.375854
 20
18.759000
 30
0.0
 10
45.000000
 20
22.487405
 30
0.0
 10
44.545898
 20
27.047203
 30
0.0
 10
43.242188
 20
31.283552
 30
0.0
 10
41.176758
 20
35.108558
 30
0.0
 10
38.437500
 20
38.434330
 30
0.0
 10
35.112305
 20
41.172973
 30
0.0
 10
31.289062
 20
43.236595
 30
0.0
 10
27.055664
 20
44.537304
 30
0.0
 10
22.500000
 20
44.987205
 30
0.0
 10
22.500000
 20
44.987205
 30
0.0
  0
ENDSEC
  0
SECTION
  2
OBJECTS
  0
DICTIONARY
  5
C
330
0
100
AcDbDictionary
  3
ACAD_GROUP
350
D
  3
ACAD_MLINESTYLE
350
17
  0
DICTIONARY
  5
D
330
C
100
AcDbDictionary
  0
DICTIONARY
  5
1A
330
C
100
AcDbDictionary
  0
DICTIONARY
  5
17
330
C
100
AcDbDictionary
  3
STANDARD
350
18
  0
DICTIONARY
  5
19
330
C
100
AcDbDictionary
  0
ENDSEC
  0
EOF
